<svg style="position: absolute; width: 0; height: 0;" width="0" height="0" version="1.1" xmlns="http://www.w3.org/2000/svg" xmlns:xlink="http://www.w3.org/1999/xlink">
<defs>
<symbol id="icon-de" viewBox="0 0 1078 1024">
<title>DE</title>
<path class="path1" d="M538.947 1.925c-297.656 0-538.947 228.365-538.947 510.075s241.291 510.075 538.947 510.075c297.656 0 538.947-228.365 538.947-510.075s-241.291-510.075-538.947-510.075zM538.947 86.937c247.646 0 449.123 190.683 449.123 425.063s-201.476 425.063-449.123 425.063c-247.646 0-449.123-190.683-449.123-425.063s201.476-425.063 449.123-425.063z"></path>
<path class="path2" d="M306.286 622.163c7.5 1.636 19.582 1.636 30.54 1.636 79.54 0.574 131.391-40.891 131.391-128.688 0.584-76.405-46.664-116.722-122.161-116.722-19.582 0-32.269 1.636-39.77 3.252v240.522zM218.123 322.218c32.269-4.931 74.352-7.651 118.703-7.651 73.768 0 121.622 12.539 159.057 39.276 40.354 28.373 65.707 73.621 65.707 138.507 0 70.39-27.082 118.933-64.561 148.921-40.915 32.198-103.141 47.458-179.222 47.458-45.519 0-77.788-2.742-99.683-5.462v-361.048z"></path>
<path class="path3" d="M850.542 529.479h-142.933v87.265h159.641v68.18h-247.804v-367.637h239.719v68.159h-151.556v76.405h142.933v67.627z"></path>
</symbol>
<symbol id="icon-en" viewBox="0 0 1078 1024">
<title>en</title>
<path class="path1" d="M538.947 1.925c-297.656 0-538.947 228.365-538.947 510.075s241.291 510.075 538.947 510.075c297.656 0 538.947-228.365 538.947-510.075s-241.291-510.075-538.947-510.075zM538.947 86.937c247.646 0 449.123 190.683 449.123 425.063s-201.476 425.063-449.123 425.063c-247.646 0-449.123-190.683-449.123-425.063s201.476-425.063 449.123-425.063z"></path>
<path class="path2" d="M450.931 529.479h-142.933v87.265h159.641v68.18h-247.804v-367.637h239.719v68.159h-151.556v76.405h142.933v67.627z"></path>
<path class="path3" d="M527.746 684.918v-367.637h102.58l80.662 134.745c23.040 38.723 46.125 84.524 63.394 125.989h1.729c-5.771-48.542-7.5-98.189-7.5-153.256v-107.477h80.707v367.637h-92.205l-82.998-141.801c-23.040-39.297-48.393-86.734-67.436-129.814l-1.752 0.531c2.358 48.542 3.481 100.357 3.481 160.376v110.708h-80.662z"></path>
</symbol>
<symbol id="icon-nl" viewBox="0 0 1078 1024">
<title>nl</title>
<path class="path1" d="M538.947 1.925c-297.656 0-538.947 228.365-538.947 510.075s241.291 510.075 538.947 510.075c297.656 0 538.947-228.365 538.947-510.075s-241.291-510.075-538.947-510.075zM538.947 86.937c247.646 0 449.123 190.683 449.123 425.063s-201.476 425.063-449.123 425.063c-247.646 0-449.123-190.683-449.123-425.063s201.476-425.063 449.123-425.063z"></path>
<path class="path2" d="M226.49 684.918v-367.637h102.58l80.662 134.745c23.085 38.723 46.125 84.524 63.394 125.989h1.729c-5.771-48.542-7.5-98.189-7.5-153.256v-107.477h80.707v367.637h-92.205l-82.998-141.801c-23.040-39.297-48.393-86.734-67.436-129.814l-1.684 0.531c2.291 48.542 3.413 100.357 3.413 160.376v110.708h-80.662z"></path>
<path class="path3" d="M624.319 317.283h88.163v297.82h154.476v69.817h-242.639v-367.637z"></path>
</symbol>
<symbol id="icon-bars" viewBox="0 0 877.7150535583496 1024">
<title>bars</title>
<path class="path1" d="M877.714 768v73.143q0 14.857-10.857 25.714t-25.714 10.857h-804.571q-14.857 0-25.714-10.857t-10.857-25.714v-73.143q0-14.857 10.857-25.714t25.714-10.857h804.571q14.857 0 25.714 10.857t10.857 25.714zM877.714 475.429v73.143q0 14.857-10.857 25.714t-25.714 10.857h-804.571q-14.857 0-25.714-10.857t-10.857-25.714v-73.143q0-14.857 10.857-25.714t25.714-10.857h804.571q14.857 0 25.714 10.857t10.857 25.714zM877.714 182.857v73.143q0 14.857-10.857 25.714t-25.714 10.857h-804.571q-14.857 0-25.714-10.857t-10.857-25.714v-73.143q0-14.857 10.857-25.714t25.714-10.857h804.571q14.857 0 25.714 10.857t10.857 25.714z"></path>
</symbol>
</defs>
</svg>
